<?xml version="1.0" encoding="utf-8"?>
<!-- Generator: Adobe Illustrator 17.0.0, SVG Export Plug-In . SVG Version: 6.00 Build 0)  -->
<!DOCTYPE svg PUBLIC "-//W3C//DTD SVG 1.1//EN" "http://www.w3.org/Graphics/SVG/1.1/DTD/svg11.dtd">
<svg version="1.1" id="Livello_1" xmlns="http://www.w3.org/2000/svg" xmlns:xlink="http://www.w3.org/1999/xlink" x="0px" y="0px"
	 width="91.867px" height="81.864px" viewBox="0 0 91.867 81.864" enable-background="new 0 0 91.867 81.864" xml:space="preserve">
<desc>Fritzing breadboard generated by brd2svg</desc>
<g id="breadboard">
	<g id="icon">
		<path fill="#28357C" d="M0,81.864h91.792L91.895,0H0V81.864 M15.391,5.754c0,0.92-0.746,1.666-1.666,1.666
			c-0.92,0-1.666-0.746-1.666-1.666s0.746-1.666,1.666-1.666C14.645,4.089,15.391,4.835,15.391,5.754z M24.814,5.754
			c0,0.92-0.746,1.666-1.666,1.666s-1.666-0.746-1.666-1.666s0.746-1.666,1.666-1.666S24.814,4.835,24.814,5.754z M15.529,12.954
			c0,0.92-0.746,1.666-1.666,1.666c-0.92,0-1.666-0.746-1.666-1.666c0-0.92,0.746-1.666,1.666-1.666
			C14.784,11.289,15.529,12.035,15.529,12.954z M24.814,12.954c0,0.92-0.746,1.666-1.666,1.666s-1.666-0.746-1.666-1.666
			c0-0.92,0.746-1.666,1.666-1.666S24.814,12.035,24.814,12.954z M15.529,20.089c0,0.92-0.746,1.666-1.666,1.666
			c-0.92,0-1.666-0.746-1.666-1.666c0-0.92,0.746-1.666,1.666-1.666C14.784,18.423,15.529,19.169,15.529,20.089z M24.814,20.089
			c0,0.92-0.746,1.666-1.666,1.666s-1.666-0.746-1.666-1.666c0-0.92,0.746-1.666,1.666-1.666S24.814,19.169,24.814,20.089z
			 M15.391,27.354c0,0.92-0.746,1.666-1.666,1.666c-0.92,0-1.666-0.746-1.666-1.666c0-0.92,0.746-1.666,1.666-1.666
			C14.645,25.689,15.391,26.435,15.391,27.354z M24.814,27.42c0,0.92-0.746,1.666-1.666,1.666s-1.666-0.746-1.666-1.666
			s0.746-1.666,1.666-1.666S24.814,26.5,24.814,27.42z M24.814,34.554c0,0.92-0.746,1.666-1.666,1.666s-1.666-0.746-1.666-1.666
			s0.746-1.666,1.666-1.666S24.814,33.635,24.814,34.554z M15.391,34.554c0,0.92-0.746,1.666-1.666,1.666
			c-0.92,0-1.666-0.746-1.666-1.666s0.746-1.666,1.666-1.666C14.645,32.889,15.391,33.635,15.391,34.554z M15.529,41.754
			c0,0.92-0.746,1.666-1.666,1.666c-0.92,0-1.666-0.746-1.666-1.666s0.746-1.666,1.666-1.666
			C14.784,40.089,15.529,40.835,15.529,41.754z M24.814,41.754c0,0.92-0.746,1.666-1.666,1.666s-1.666-0.746-1.666-1.666
			s0.746-1.666,1.666-1.666S24.814,40.835,24.814,41.754z M24.814,48.55c0,0.92-0.746,1.666-1.666,1.666s-1.666-0.746-1.666-1.666
			s0.746-1.666,1.666-1.666S24.814,47.63,24.814,48.55z M15.529,48.55c0,0.92-0.746,1.666-1.666,1.666
			c-0.92,0-1.666-0.746-1.666-1.666s0.746-1.666,1.666-1.666C14.784,46.885,15.529,47.63,15.529,48.55z M24.814,55.75
			c0,0.92-0.746,1.666-1.666,1.666s-1.666-0.746-1.666-1.666c0-0.92,0.746-1.666,1.666-1.666S24.814,54.83,24.814,55.75z
			 M15.529,55.75c0,0.92-0.746,1.666-1.666,1.666c-0.92,0-1.666-0.746-1.666-1.666c0-0.92,0.746-1.666,1.666-1.666
			C14.784,54.085,15.529,54.83,15.529,55.75z M24.814,62.95c0,0.92-0.746,1.666-1.666,1.666s-1.666-0.746-1.666-1.666
			c0-0.92,0.746-1.666,1.666-1.666S24.814,62.03,24.814,62.95z M15.529,62.95c0,0.92-0.746,1.666-1.666,1.666
			c-0.92,0-1.666-0.746-1.666-1.666c0-0.92,0.746-1.666,1.666-1.666C14.784,61.285,15.529,62.03,15.529,62.95z M15.529,70.15
			c0,0.92-0.746,1.666-1.666,1.666c-0.92,0-1.666-0.746-1.666-1.666s0.746-1.666,1.666-1.666
			C14.784,68.485,15.529,69.23,15.529,70.15z M24.814,70.15c0,0.92-0.746,1.666-1.666,1.666s-1.666-0.746-1.666-1.666
			s0.746-1.666,1.666-1.666S24.814,69.23,24.814,70.15z M24.814,77.35c0,0.92-0.746,1.666-1.666,1.666s-1.666-0.746-1.666-1.666
			c0-0.92,0.746-1.666,1.666-1.666S24.814,76.43,24.814,77.35z M15.529,77.35c0,0.92-0.746,1.666-1.666,1.666
			c-0.92,0-1.666-0.746-1.666-1.666c0-0.92,0.746-1.666,1.666-1.666C14.784,75.685,15.529,76.43,15.529,77.35z M87.961,9.782
			c0,4.011-3.252,7.263-7.263,7.263c-4.011,0-7.263-3.252-7.263-7.263s3.252-7.263,7.263-7.263
			C84.709,2.519,87.961,5.771,87.961,9.782z M88.834,71.782c0,4.011-3.252,7.263-7.263,7.263c-4.011,0-7.263-3.252-7.263-7.263
			c0-4.011,3.252-7.263,7.263-7.263C85.582,64.519,88.834,67.771,88.834,71.782z"/>
		<circle id="connector1pin" fill="none" stroke="#9A916C" stroke-width="1.224" cx="13.864" cy="5.754" r="2.052"/>
		<circle id="connector2pin" fill="none" stroke="#9A916C" stroke-width="1.224" cx="13.864" cy="12.954" r="2.052"/>
		<circle id="connector3pin" fill="none" stroke="#9A916C" stroke-width="1.224" cx="13.864" cy="20.154" r="2.052"/>
		<circle id="connector4pin" fill="none" stroke="#9A916C" stroke-width="1.224" cx="13.864" cy="27.354" r="2.052"/>
		<circle id="connector5pin" fill="none" stroke="#9A916C" stroke-width="1.224" cx="13.864" cy="34.554" r="2.052"/>
		<circle id="connector6pin" fill="none" stroke="#9A916C" stroke-width="1.224" cx="13.864" cy="41.754" r="2.052"/>
		<circle id="connector7pin" fill="none" stroke="#9A916C" stroke-width="1.224" cx="13.864" cy="48.55" r="2.052"/>
		<circle id="connector8pin" fill="none" stroke="#9A916C" stroke-width="1.224" cx="13.864" cy="55.75" r="2.052"/>
		<circle id="connector9pin" fill="none" stroke="#9A916C" stroke-width="1.224" cx="13.864" cy="62.95" r="2.052"/>
		<circle id="connector10pin" fill="none" stroke="#9A916C" stroke-width="1.224" cx="13.864" cy="70.15" r="2.052"/>
		<circle id="connector11pin" fill="none" stroke="#9A916C" stroke-width="1.224" cx="13.864" cy="77.35" r="2.052"/>
		<circle id="connector12pin" fill="none" stroke="#9A916C" stroke-width="1.224" cx="23.148" cy="5.754" r="2.052"/>
		<circle id="connector13pin" fill="none" stroke="#9A916C" stroke-width="1.224" cx="23.148" cy="12.954" r="2.052"/>
		<circle id="connector14pin" fill="none" stroke="#9A916C" stroke-width="1.224" cx="23.148" cy="20.154" r="2.052"/>
		<circle id="connector15pin" fill="none" stroke="#9A916C" stroke-width="1.224" cx="23.148" cy="27.354" r="2.052"/>
		<circle id="connector16pin" fill="none" stroke="#9A916C" stroke-width="1.224" cx="23.148" cy="34.554" r="2.052"/>
		<circle id="connector17pin" fill="none" stroke="#9A916C" stroke-width="1.224" cx="23.148" cy="41.754" r="2.052"/>
		<circle id="connector18pin" fill="none" stroke="#9A916C" stroke-width="1.224" cx="23.148" cy="48.55" r="2.052"/>
		<circle id="connector19pin" fill="none" stroke="#9A916C" stroke-width="1.224" cx="23.148" cy="55.75" r="2.052"/>
		<circle id="connector20pin" fill="none" stroke="#9A916C" stroke-width="1.224" cx="23.148" cy="62.95" r="2.052"/>
		<circle id="connector21pin" fill="none" stroke="#9A916C" stroke-width="1.224" cx="23.148" cy="70.15" r="2.052"/>
		<circle id="connector22pin" fill="none" stroke="#9A916C" stroke-width="1.224" cx="23.148" cy="77.35" r="2.052"/>
	</g>
	<g id="others" xmlns:svg="http://www.w3.org/2000/svg">
		<text transform="matrix(1 0 0 1 38.5444 75.2977)" fill="#FFFFFF" font-family="'DroidSans'" font-size="4">OV7670 + AL422</text>
		<text transform="matrix(1 0 0 1 7.0633 6.4521)" fill="#FFFFFF" font-family="'DroidSans'" font-size="2">3V3</text>
		<text transform="matrix(1 0 0 1 28.0932 6.7488)" fill="#FFFFFF" font-family="'DroidSans'" font-size="2">GND</text>
		<text transform="matrix(1 0 0 1 5.5636 13.9329)" fill="#FFFFFF" font-family="'DroidSans'" font-size="2">SIOC</text>
		<text transform="matrix(1 0 0 1 27.5932 13.9492)" fill="#FFFFFF" font-family="'DroidSans'" font-size="2">SIOD</text>
		<text transform="matrix(1 0 0 1 4.6884 20.8523)" fill="#FFFFFF" font-family="'DroidSans'" font-size="2">VSYNC</text>
		<text transform="matrix(1 0 0 1 27.5932 21.1472)" fill="#FFFFFF" font-family="'DroidSans'" font-size="2">HREF</text>
		<text transform="matrix(1 0 0 1 7.6883 28.3329)" fill="#FFFFFF" font-family="'DroidSans'" font-size="2">D7</text>
		<text transform="matrix(1 0 0 1 7.6884 35.1616)" fill="#FFFFFF" font-family="'DroidSans'" font-size="2">D5</text>
		<text transform="matrix(1 0 0 1 7.6884 42.596)" fill="#FFFFFF" font-family="'DroidSans'" font-size="2">D3</text>
		<text transform="matrix(1 0 0 1 7.6884 49.6545)" fill="#FFFFFF" font-family="'DroidSans'" font-size="2">D1</text>
		<text transform="matrix(1 0 0 1 7.0634 57.1333)" fill="#FFFFFF" font-family="'DroidSans'" font-size="2">RST</text>
		<text transform="matrix(1 0 0 1 7.0636 64.3373)" fill="#FFFFFF" font-family="'DroidSans'" font-size="2">STR</text>
		<text transform="matrix(1 0 0 1 7.0634 71.2523)" fill="#FFFFFF" font-family="'DroidSans'" font-size="2">WR</text>
		<text transform="matrix(1 0 0 1 5.5634 78.4186)" fill="#FFFFFF" font-family="'DroidSans'" font-size="2">WRST</text>
		<text transform="matrix(1 0 0 1 27.5929 28.3472)" fill="#FFFFFF" font-family="'DroidSans'" font-size="2">D6</text>
		<text transform="matrix(1 0 0 1 27.5929 35.8297)" fill="#FFFFFF" font-family="'DroidSans'" font-size="2">D4</text>
		<text transform="matrix(1 0 0 1 27.5932 42.891)" fill="#FFFFFF" font-family="'DroidSans'" font-size="2">D2</text>
		<text transform="matrix(1 0 0 1 27.5929 50.2277)" fill="#FFFFFF" font-family="'DroidSans'" font-size="2">D0</text>
		<text transform="matrix(1 0 0 1 27.5929 57.4715)" fill="#FFFFFF" font-family="'DroidSans'" font-size="2">PWDN</text>
		<text transform="matrix(1 0 0 1 27.5932 64.3472)" fill="#FFFFFF" font-family="'DroidSans'" font-size="2">RCK</text>
		<text transform="matrix(1 0 0 1 27.5929 71.5472)" fill="#FFFFFF" font-family="'DroidSans'" font-size="2">OE</text>
		<text transform="matrix(1 0 0 1 27.5929 78.992)" fill="#FFFFFF" font-family="'DroidSans'" font-size="2">RST</text>
	</g>
</g>
<circle fill="#231F20" cx="58.701" cy="39.702" r="24.501"/>
<circle fill="#072024" cx="58.701" cy="39.702" r="20.157"/>
</svg>
